<svg preserveAspectRatio="xMidYMid meet" viewBox="0 0 553.000000 206.000000" height="206.000000pt" width="553.000000pt" xmlns="http://www.w3.org/2000/svg" version="1.0">
<metadata>
Created by potrace 1.16, written by Peter Selinger 2001-2019
</metadata>
<g stroke="none" fill="#ffffff" transform="translate(0.000000,206.000000) scale(0.100000,-0.100000)">
<path d="M1592 1790 c-23 -22 -30 -74 -12 -85 16 -10 13 -17 -40 -90 l-50 -70
-473 -5 -472 -5 0 -480 0 -480 534 -3 c421 -2 536 0 543 10 4 7 8 209 8 449 0
357 -2 439 -14 448 -9 8 -152 10 -512 9 l-499 -3 0 -430 0 -430 474 -3 c341
-1 478 1 487 9 11 9 14 82 14 389 0 208 -3 385 -6 394 -5 14 -55 16 -453 16
-334 0 -450 -3 -459 -12 -17 -17 -17 -709 0 -726 9 -9 118 -12 429 -12 371 0
418 2 423 16 8 20 8 648 0 668 -5 14 -49 16 -389 16 -211 0 -390 -3 -399 -6
-14 -5 -16 -42 -16 -309 0 -167 3 -310 6 -319 5 -13 23 -16 89 -16 l83 0 80
85 81 85 180 0 181 0 0 180 0 180 -190 0 -190 0 0 -167 -1 -168 -79 -83 -80
-83 -63 3 -62 3 -3 288 -2 287 370 0 370 0 0 -315 0 -315 -395 0 -395 0 0 340
0 340 425 0 425 0 0 -370 0 -370 -455 0 -455 0 0 400 0 400 480 0 480 0 0
-425 0 -425 -510 0 -510 0 2 453 3 452 466 3 466 2 57 80 c43 60 63 80 80 80
27 0 52 25 61 62 5 21 1 33 -19 52 -30 31 -65 33 -94 6z m-202 -685 l0 -135
-170 0 -170 0 0 135 0 135 170 0 170 0 0 -135z"></path>
<path d="M1940 1190 l0 -320 180 0 180 0 0 80 0 81 -87 -3 c-74 -3 -88 -6 -91
-20 -3 -16 6 -18 72 -18 l76 0 0 -40 0 -40 -150 0 -150 0 0 280 c0 242 2 280
15 280 13 0 15 -37 15 -270 0 -233 2 -270 15 -270 13 0 15 39 15 290 l0 290
-45 0 -45 0 0 -320z"></path>
<path d="M2065 1498 c-3 -7 -4 -137 -3 -288 l3 -275 88 -3 c82 -3 87 -2 87 18
0 18 -6 20 -70 20 l-70 0 -2 267 c-2 202 -6 267 -15 271 -7 2 -15 -2 -18 -10z"></path>
<path d="M2737 1500 c-141 -35 -235 -149 -245 -296 -4 -65 -1 -79 25 -137 58
-124 157 -189 286 -190 326 -2 437 446 147 590 -71 35 -151 48 -213 33z m179
-49 c184 -84 230 -317 89 -456 -139 -139 -366 -103 -452 73 -23 47 -28 70 -27
127 1 99 37 167 126 234 57 43 193 54 264 22z"></path>
<path d="M2695 1419 c-192 -96 -192 -366 0 -455 60 -28 153 -32 209 -9 62 26
123 95 142 161 36 123 -13 246 -119 299 -66 32 -171 35 -232 4z m189 -23 c50
-21 113 -82 127 -124 39 -117 -15 -241 -125 -286 -162 -67 -332 80 -295 256
27 123 177 202 293 154z"></path>
<path d="M2756 1378 c-140 -31 -193 -212 -93 -320 87 -94 244 -77 307 34 85
150 -45 324 -214 286z m121 -45 c78 -37 110 -151 64 -227 -25 -40 -92 -76
-140 -76 -44 0 -107 36 -131 75 -32 52 -35 103 -8 155 41 79 135 111 215 73z"></path>
<path d="M4035 1497 c-3 -7 -4 -149 -3 -317 l3 -305 78 -3 77 -3 0 321 c0 278
-2 320 -15 320 -13 0 -15 -40 -15 -300 l0 -300 -45 0 -45 0 0 280 c0 242 2
280 15 280 13 0 15 -37 15 -271 0 -212 3 -270 13 -267 9 4 13 73 15 291 l2
287 -45 0 c-28 0 -48 -5 -50 -13z"></path>
<path d="M4590 1500 c-87 -15 -146 -78 -156 -167 -12 -93 50 -169 170 -212 73
-26 91 -41 81 -71 -9 -29 -75 -27 -143 5 l-53 24 -39 -62 c-22 -34 -36 -65
-32 -69 22 -21 116 -58 169 -67 110 -17 196 20 234 103 53 116 -5 223 -148
272 -73 26 -97 45 -88 72 9 31 74 29 144 -3 30 -14 55 -24 56 -23 1 2 12 20
24 41 l23 37 -54 25 c-115 53 -199 51 -252 -4 -68 -71 -29 -185 74 -216 69
-20 128 -57 140 -85 15 -35 6 -82 -20 -105 -27 -25 -105 -30 -159 -11 -25 8
-48 13 -53 10 -33 -21 42 -56 122 -57 94 -2 150 46 150 127 0 73 -34 107 -138
141 -100 32 -142 93 -106 154 10 17 31 35 46 42 35 15 112 6 161 -17 40 -19
50 -40 15 -30 -137 39 -155 40 -190 8 -23 -20 -23 -67 1 -91 10 -10 50 -30 88
-45 81 -31 140 -83 149 -132 18 -99 -59 -184 -169 -184 -43 0 -153 32 -170 49
-7 7 4 34 30 70 1 2 22 -3 45 -12 79 -29 121 -31 151 -7 32 26 36 71 8 99 -10
10 -50 30 -88 45 -136 52 -186 155 -121 249 53 75 160 86 282 29 37 -18 70
-32 71 -32 2 0 6 7 9 16 13 35 -183 98 -264 84z"></path>
<path d="M3320 1283 c0 -250 8 -291 72 -348 45 -42 101 -58 196 -57 105 0 173
35 216 112 l31 55 3 228 c3 201 2 227 -12 227 -14 0 -16 -24 -16 -184 0 -101
-5 -207 -10 -237 -13 -65 -49 -123 -92 -145 -42 -22 -160 -30 -218 -14 -56 15
-114 72 -129 125 -6 23 -11 123 -11 233 l0 192 45 0 45 0 0 -196 c0 -166 3
-200 17 -225 18 -30 50 -47 98 -50 65 -4 86 2 123 35 l37 34 3 201 c2 114 7
201 13 201 5 0 9 -85 9 -202 0 -231 -6 -253 -77 -284 -52 -21 -153 -15 -190
12 -56 41 -63 71 -63 272 0 155 -2 182 -15 182 -13 0 -15 -28 -15 -192 0 -173
2 -196 20 -234 12 -23 32 -49 45 -58 35 -23 132 -36 190 -25 61 11 92 33 119
85 19 35 21 60 24 257 l3 217 -50 0 -51 0 0 -207 c-1 -148 -4 -213 -13 -224
-43 -56 -159 -51 -186 8 -7 15 -11 99 -11 223 l0 200 -75 0 -75 0 0 -217z"></path>
</g>
</svg>
